<?xml version="1.0" encoding="UTF-8" standalone="no"?>
<svg
   xmlns:dc="http://purl.org/dc/elements/1.1/"
   xmlns:cc="http://creativecommons.org/ns#"
   xmlns:rdf="http://www.w3.org/1999/02/22-rdf-syntax-ns#"
   xmlns:svg="http://www.w3.org/2000/svg"
   xmlns="http://www.w3.org/2000/svg"
   version="1.1"
   id="svg2"
   width="800.00421"
   height="86.764999"
   viewBox="0 0 800.00423 86.764999">
  <metadata id="metadata8">
    <rdf:RDF>
      <cc:Work rdf:about="">
        <dc:format>image/svg+xml</dc:format>
        <dc:type rdf:resource="http://purl.org/dc/dcmitype/StillImage" />
        <dc:title></dc:title>
      </cc:Work>
    </rdf:RDF>
  </metadata>
  <defs id="defs6" />
  <g id="g10" transform="translate(-16.293249,-19.283227)">
    <path style="fill:#000000;stroke-width:0.627511"
       d="m 168.21538,105.94556 c -2.05707,-0.53175 -2.55317,-3.35239 -1.81523,-10.320721 0.37906,-3.579442 0.75778,-7.355218 0.84157,-8.390614 l 0.15237,-1.88254 -5.66017,-0.04353 c -6.7157,-0.05165 -10.18,-1.338725 -14.06787,-5.226597 -3.38201,-3.38202 -4.74212,-7.974281 -4.28426,-14.465315 0.50164,-7.111527 2.42206,-11.519755 7.02574,-16.127242 3.25683,-3.259523 4.51942,-4.064318 8.12181,-5.176983 4.49339,-1.387869 10.3572,-1.745203 11.40725,-0.695142 0.41143,0.411434 1.32281,0.35827 2.68932,-0.156881 1.93727,-0.730303 2.16208,-0.668707 3.58201,0.981443 1.08656,1.262736 1.51227,2.504977 1.50531,4.392595 -0.0196,5.298463 -1.30882,21.72646 -2.49654,31.811299 -0.6707,5.694681 -1.41108,13.389494 -1.6453,17.099593 -0.23423,3.710085 -0.73726,6.993505 -1.11785,7.296475 -0.98324,0.78271 -3.02384,1.21805 -4.23816,0.90415 z m -2.94242,-27.863941 c 3.0059,-1.608719 4.85308,-11.010502 4.90496,-24.965401 l 0.0149,-3.997381 -3.61728,0.261651 c -7.58309,0.54851 -12.82026,5.059748 -14.94547,12.873833 -1.92338,7.07198 -0.61181,11.873707 4.12357,15.096571 2.28715,1.556621 7.26253,1.938541 9.51936,0.730727 z m -74.146828,8.211336 c -0.690267,-0.690266 -1.255028,-1.52488 -1.255028,-1.854701 0,-0.329822 -1.197408,-0.177213 -2.660904,0.339144 -9.657173,3.407246 -19.280761,0.512714 -21.091217,-6.343692 -2.094824,-7.933327 -2.441819,-26.972067 -0.59469,-32.629135 0.733876,-2.247597 1.045722,-2.515439 3.130437,-2.68877 1.884478,-0.156679 2.503452,0.09455 3.326052,1.350002 0.886921,1.353612 0.91971,2.222456 0.267748,7.095145 -0.819351,6.123758 -0.425914,19.752698 0.680595,23.576098 1.059775,3.661929 4.779636,4.265942 13.961293,2.266972 l 2.980686,-0.648935 0.01501,-13.899583 c 0.01511,-14.018572 0.45909,-18.351905 1.979062,-19.315629 1.239821,-0.786087 3.266469,-0.652986 4.569939,0.300134 1.086424,0.794413 1.149178,2.072987 1.039472,21.178565 -0.113337,19.737559 -0.154913,20.365283 -1.419566,21.431261 -1.711317,1.442487 -3.382692,1.389286 -4.928855,-0.156876 z m 122.992568,0 c -0.69027,-0.690266 -1.25503,-1.52488 -1.25503,-1.854701 0,-0.329822 -1.19741,-0.177213 -2.6609,0.339144 -9.65718,3.407246 -19.28076,0.512714 -21.09122,-6.343692 -2.09482,-7.933327 -2.44182,-26.972067 -0.59469,-32.629135 0.73387,-2.247597 1.04571,-2.515439 3.13044,-2.68877 1.88448,-0.156679 2.50345,0.09455 3.32605,1.350002 0.88692,1.353612 0.91971,2.222456 0.26774,7.095145 -0.81934,6.123758 -0.42591,19.752698 0.68061,23.576098 1.05977,3.661929 4.77963,4.265942 13.96128,2.266972 l 2.98069,-0.648935 0.015,-13.899583 c 0.0151,-14.018572 0.45908,-18.351905 1.97906,-19.315629 1.23981,-0.786087 3.26646,-0.652986 4.56993,0.300134 1.08643,0.794413 1.14919,2.072987 1.03948,21.178565 -0.11334,19.737559 -0.15492,20.365283 -1.41957,21.431261 -1.71132,1.442487 -3.38269,1.389286 -4.92886,-0.156876 z m -99.32536,-0.05691 c -4.69437,-0.686543 -8.85741,-2.549448 -10.16834,-4.550192 -1.46042,-2.22887 -1.00698,-4.871851 1.03118,-6.010623 1.56364,-0.873644 1.83025,-0.817018 4.33801,0.921479 2.50975,1.739848 3.04086,1.852325 8.74659,1.852325 8.66362,0 11.35883,-1.880676 9.41625,-6.570481 -1.06966,-2.582388 -2.9142,-3.596125 -9.79734,-5.384519 -3.30415,-0.85849 -6.82528,-1.983759 -7.82474,-2.500601 -5.42999,-2.807958 -4.74363,-12.995638 1.13775,-16.88776 2.68364,-1.775931 18.61943,-7.248684 21.10706,-7.248684 0.85532,0 1.95655,0.401428 2.44719,0.892059 1.06578,1.065786 2.56768,9.69456 1.9621,11.272707 -0.38937,1.014665 -2.63324,2.268037 -4.06039,2.268037 -1.16487,0 -3.09672,-2.544535 -3.09672,-4.078837 0,-1.947558 -0.53878,-1.951055 -6.15761,-0.03996 -5.55569,1.889613 -7.94429,3.269279 -8.96635,5.179002 -1.04413,1.950959 -0.54535,2.306466 5.08376,3.623482 9.14982,2.140744 13.97303,5.528138 15.59907,10.955381 1.48601,4.959846 0.10983,10.383038 -3.31924,13.080349 -3.51997,2.768802 -11.0741,4.163457 -17.47823,3.226856 z m 233.9644,-1.59917 -2.35133,-2.283581 -3.79735,1.812946 c -3.23605,1.544971 -4.54912,1.810433 -8.88329,1.795919 -6.10271,-0.02047 -9.45219,-1.481921 -12.25093,-5.345465 -3.66405,-5.058069 -4.60636,-15.882844 -1.97752,-22.716622 1.82481,-4.743658 6.6026,-9.943604 11.21953,-12.210841 9.07499,-4.456464 24.4671,0.04344 21.60854,6.317257 -0.37133,0.814989 -0.85177,4.980107 -1.06764,9.255818 -0.42397,8.397448 0.10559,11.950464 2.85835,19.177631 1.4469,3.798739 1.4526,3.898593 0.29567,5.176983 -1.6762,1.852198 -2.96838,1.628223 -5.65403,-0.980045 z m -7.88966,-6.228631 c 4.02315,-2.195432 4.30583,-2.74359 3.70021,-7.175614 -0.30655,-2.243357 -0.49611,-7.554494 -0.42126,-11.802524 0.15343,-8.707943 0.0699,-8.879706 -4.32798,-8.895797 -3.66339,-0.01341 -5.41116,0.789001 -8.97051,4.118342 -3.843,3.594675 -5.36223,7.266685 -5.30195,12.8149 0.0741,6.826276 2.07017,10.601021 6.30567,11.924946 2.21037,0.69092 6.88028,0.1811 9.01582,-0.984253 z m 161.63771,7.526124 c -0.85336,-0.853318 -0.98612,-3.562362 -0.98612,-20.121662 0,-11.990618 0.24256,-19.588786 0.64961,-20.349356 0.44838,-0.837809 1.31618,-1.213771 2.8017,-1.213771 2.36912,0 3.45135,1.26603 3.45135,4.037585 0,2.004712 0.30502,2.004957 2.93054,0.0024 5.0887,-3.881306 13.3521,-6.138442 16.52235,-4.513044 2.40918,1.235195 3.76301,4.571215 3.76409,9.275535 0,4.841993 -1.0892,6.885368 -3.67415,6.885368 -2.58727,0 -3.22753,-1.083007 -3.22753,-5.459363 0,-3.717663 -0.0868,-3.953333 -1.45698,-3.953333 -4.64785,0 -11.33016,4.329492 -13.62493,8.827606 -1.09441,2.145154 -1.23339,3.723781 -1.23339,14.006799 0,12.542221 -0.25936,13.561352 -3.45135,13.561352 -0.8135,0 -1.92288,-0.443737 -2.46519,-0.986092 z m 89.19749,0.301677 c -4.6944,-0.686543 -8.85744,-2.549448 -10.16835,-4.550192 -1.46043,-2.22887 -1.00697,-4.871851 1.03116,-6.010623 1.56364,-0.873644 1.83026,-0.817018 4.33803,0.921479 2.50975,1.739848 3.04087,1.852325 8.74661,1.852325 8.66358,0 11.35882,-1.880676 9.41623,-6.570481 -1.06966,-2.582388 -2.91418,-3.596125 -9.79736,-5.384519 -3.30413,-0.85849 -6.82528,-1.983759 -7.82472,-2.500601 -5.43,-2.807958 -4.74362,-12.995638 1.13776,-16.88776 2.6836,-1.775931 18.6194,-7.248684 21.10708,-7.248684 0.85529,0 1.95652,0.401428 2.44715,0.892059 1.06581,1.065786 2.5677,9.69456 1.96208,11.272707 -0.38935,1.014665 -2.6332,2.268037 -4.06035,2.268037 -1.16486,0 -3.09673,-2.544535 -3.09673,-4.078837 0,-1.947558 -0.53879,-1.951055 -6.1576,-0.03996 -5.55571,1.889613 -7.94432,3.269279 -8.96634,5.179002 -1.04416,1.950959 -0.54538,2.306466 5.08374,3.623482 9.1498,2.140744 13.97302,5.528138 15.59906,10.955381 1.48602,4.959846 0.10985,10.383038 -3.31925,13.080349 -3.51992,2.768802 -11.07408,4.163457 -17.4782,3.226856 z m 76.46592,-0.301677 c -0.8533,-0.853318 -0.98608,-3.562362 -0.98608,-20.121662 0,-11.990618 0.24253,-19.588786 0.64963,-20.349356 0.44832,-0.837809 1.31617,-1.213771 2.80168,-1.213771 2.36914,0 3.45136,1.26603 3.45136,4.037585 0,2.004712 0.30501,2.004957 2.93055,0.0024 5.08869,-3.881306 13.3521,-6.138442 16.52234,-4.513044 2.40923,1.235195 3.763,4.571215 3.76409,9.275535 0,4.842017 -1.08919,6.885391 -3.67416,6.885391 -2.58726,0 -3.22751,-1.083006 -3.22751,-5.459363 0,-3.717662 -0.0868,-3.953332 -1.45699,-3.953332 -4.64781,0 -11.33021,4.329497 -13.62497,8.827606 -1.09437,2.145154 -1.23335,3.723781 -1.23335,14.006798 0,12.542222 -0.25937,13.561353 -3.45136,13.561353 -0.81349,0 -1.92287,-0.443738 -2.46523,-0.986093 z m 104.15982,-1.297493 -2.35129,-2.283581 -3.79736,1.812946 c -3.23604,1.544971 -4.54912,1.810433 -8.88328,1.795919 -6.10268,-0.02047 -9.45219,-1.481921 -12.25095,-5.345465 -3.66404,-5.058069 -4.60639,-15.882844 -1.97748,-22.716622 1.82479,-4.743658 6.60259,-9.943604 11.21951,-12.210841 9.07497,-4.456464 24.46708,0.04344 21.60855,6.317257 -0.37133,0.814989 -0.85181,4.980107 -1.06769,9.255818 -0.42394,8.397448 0.10561,11.950464 2.85841,19.177631 1.44687,3.798739 1.45257,3.898593 0.2957,5.176983 -1.67622,1.852198 -2.9684,1.628223 -5.65412,-0.980045 z m -7.88962,-6.228631 c 4.02317,-2.195432 4.30583,-2.74359 3.70022,-7.175614 -0.30652,-2.243357 -0.4961,-7.554494 -0.42132,-11.802524 0.15344,-8.707943 0.0699,-8.879706 -4.32795,-8.895797 -3.66333,-0.01341 -5.41118,0.789001 -8.97049,4.118342 -3.84302,3.594675 -5.36222,7.266685 -5.30198,12.8149 0.0742,6.826276 2.07018,10.601021 6.3057,11.924946 2.21034,0.69092 6.88026,0.1811 9.01582,-0.984253 z m 29.32308,7.827801 c -4.69434,-0.686543 -8.85739,-2.549448 -10.16834,-4.550192 -1.46038,-2.22887 -1.00698,-4.871851 1.0312,-6.010623 1.56364,-0.873644 1.83021,-0.817018 4.33799,0.921479 2.50975,1.739848 3.04086,1.852325 8.7466,1.852325 8.66364,0 11.35882,-1.880676 9.41627,-6.570481 -1.0697,-2.582388 -2.91421,-3.596125 -9.79734,-5.384519 -3.30419,-0.85849 -6.82528,-1.983759 -7.82477,-2.500601 -5.43,-2.807958 -4.74363,-12.995638 1.13781,-16.88776 2.6836,-1.775931 18.61934,-7.248684 21.10703,-7.248684 0.85528,0 1.95657,0.401428 2.44715,0.892059 1.06586,1.065786 2.56774,9.69456 1.96213,11.272707 -0.3894,1.014665 -2.63325,2.268037 -4.0604,2.268037 -1.16488,0 -3.09674,-2.544535 -3.09674,-4.078837 0,-1.947558 -0.53878,-1.951055 -6.15759,-0.03996 -5.55566,1.889613 -7.94432,3.269279 -8.96635,5.179002 -1.0441,1.950959 -0.54537,2.306466 5.08375,3.623482 9.14985,2.140744 13.97301,5.528138 15.5991,10.955381 1.48603,4.959846 0.1098,10.383038 -3.31925,13.080349 -3.51997,2.768802 -11.07413,4.163457 -17.47825,3.226856 z M 18.290327,84.46267 16.293249,82.465587 16.62288,70.103347 c 0.367969,-13.80001 1.644372,-40.13433 2.096287,-43.249852 0.253799,-1.749712 0.649053,-2.125293 2.935058,-2.789001 1.45297,-0.421849 5.465572,-0.782661 8.916894,-0.801802 5.525956,-0.03064 6.700298,0.164506 9.836359,1.634633 4.810699,2.255174 8.853194,6.116135 10.561518,10.087238 2.612116,6.072032 0.880816,14.472398 -4.007223,19.443266 l -2.295443,2.334345 2.504522,1.27771 c 8.215295,4.191131 10.864323,10.345669 7.043523,16.364346 -4.353981,6.858547 -13.197281,10.546813 -27.843844,11.612787 l -6.083127,0.44273 z m 15.89436,-7.21999 c 6.067301,-1.160868 8.543357,-2.236923 11.691203,-5.080814 3.308955,-2.989444 3.28155,-4.229887 -0.137721,-6.233714 -4.857886,-2.846907 -9.712252,-4.168464 -15.794563,-4.299913 l -5.647618,-0.122053 -0.175092,8.31455 -0.175092,8.31455 h 2.786822 c 1.532751,0 4.886179,-0.401673 7.452061,-0.892606 z m 3.627027,-25.53056 c 5.742238,-3.20756 8.422661,-9.5588 6.006217,-14.231686 -2.188064,-4.231247 -9.63827,-7.578628 -15.058545,-6.765809 l -2.769157,0.415261 -0.388282,8.599265 c -0.213556,4.729593 -0.495263,9.643049 -0.626018,10.918788 -0.287195,2.802099 0.181031,3.017396 5.989234,2.753982 2.956399,-0.134084 4.936267,-0.622735 6.846551,-1.689801 z M 243.61181,85.665866 c -6.51377,-1.10602 -11.47636,-4.765977 -13.80644,-10.182419 -1.23351,-2.867343 -1.37155,-4.048707 -1.12387,-9.617724 0.24004,-5.397307 0.56562,-6.95218 2.17229,-10.374301 2.37306,-5.054463 4.5647,-7.661281 8.2747,-9.84225 2.62198,-1.541362 3.51295,-1.713351 8.87591,-1.713351 5.10402,0 6.4125,0.225618 9.09804,1.568781 5.77851,2.890089 7.53678,8.059307 4.341,12.762317 -1.39045,2.046225 -3.36541,3.236033 -13.87149,8.356776 l -12.25021,5.970854 1.79187,1.886568 c 2.94491,3.100561 6.29289,4.496492 10.89079,4.540873 5.70311,0.05504 9.63827,-1.226422 12.649,-4.119133 2.86222,-2.750027 2.89498,-2.759882 4.78174,-1.438339 2.03423,1.424823 1.87761,4.601495 -0.331,6.714179 -2.23335,2.136354 -7.8273,4.680304 -12.05431,5.481945 -3.71544,0.704616 -5.31381,0.705501 -9.43802,0.005 z m 7.84392,-28.430733 c 3.47503,-1.838638 5.33386,-3.173236 5.33386,-3.829598 0,-1.014382 -5.55685,-2.854188 -8.65947,-2.867046 -3.90805,-0.01619 -6.1312,0.995025 -8.75342,3.981566 -1.8049,2.055677 -4.55007,8.166845 -4.55007,10.12918 0,0.845496 6.4727,-2.040366 16.6291,-7.414102 z m 35.91538,28.40908 c -6.0094,-1.502328 -11.42094,-6.28482 -13.27779,-11.734358 -1.27507,-3.742126 -1.27223,-11.533862 0.006,-15.83736 2.83612,-9.550229 10.5836,-15.052915 20.11634,-14.28772 2.91188,0.233742 4.7149,0.777729 6.50576,1.962859 1.3626,0.901731 2.58025,1.639507 2.7059,1.639507 0.12564,0 0.41062,-4.825423 0.63329,-10.723159 0.47395,-12.553075 0.90696,-13.973158 4.34771,-14.258434 2.04333,-0.169409 2.4316,0.02024 2.97676,1.454125 0.34481,0.906919 0.48907,3.112446 0.32059,4.901173 -0.16849,1.788722 -0.77072,9.986335 -1.33829,18.216909 -0.88026,12.765036 -0.91868,16.543359 -0.26133,25.704747 l 0.77063,10.740069 -1.38491,1.121434 c -1.85094,1.498798 -2.36796,1.424306 -4.23159,-0.609698 l -1.58612,-1.731127 -3.51858,1.723705 c -3.92333,1.921993 -9.15455,2.624712 -12.78415,1.717328 z m 9.12884,-7.727594 c 1.11058,-0.465401 2.937,-1.620023 4.05868,-2.565835 l 2.03941,-1.719657 v -8.681255 c 0,-8.370531 -0.0568,-8.748747 -1.58663,-10.566857 -4.29912,-5.109216 -13.54881,-4.855162 -18.05135,0.495805 -3.48729,4.144409 -4.36269,12.625041 -1.80478,17.484355 2.82192,5.360879 9.78798,7.881991 15.34467,5.553444 z m 103.196,7.727594 c -6.0094,-1.502328 -11.42094,-6.28482 -13.27778,-11.734358 -1.27507,-3.742126 -1.27223,-11.533862 0.006,-15.83736 2.83612,-9.550229 10.58361,-15.052915 20.11634,-14.28772 2.91189,0.233742 4.7149,0.777729 6.50576,1.962859 1.3626,0.901731 2.58026,1.639507 2.7059,1.639507 0.12564,0 0.41063,-4.825423 0.6333,-10.723159 0.47394,-12.553075 0.90696,-13.973158 4.34771,-14.258434 2.04332,-0.169409 2.4316,0.02024 2.97675,1.454125 0.34481,0.906919 0.48908,3.112446 0.32059,4.901173 -0.16848,1.788722 -0.77071,9.986335 -1.33829,18.216909 -0.88026,12.765036 -0.91868,16.543359 -0.26132,25.704747 l 0.77063,10.740069 -1.38492,1.121434 c -1.85093,1.498798 -2.36795,1.424306 -4.23158,-0.609698 l -1.58612,-1.731127 -3.51858,1.723705 c -3.92334,1.921993 -9.15456,2.624712 -12.78416,1.717328 z m 9.12884,-7.727594 c 1.1106,-0.465401 2.93701,-1.620023 4.05868,-2.565835 l 2.03942,-1.719657 v -8.681255 c 0,-8.370531 -0.0568,-8.748747 -1.58664,-10.566857 -4.29912,-5.109216 -13.54881,-4.855162 -18.05135,0.495805 -3.48729,4.144409 -4.36268,12.625041 -1.80478,17.484355 2.82193,5.360879 9.78798,7.881991 15.34467,5.553444 z m 38.10127,7.749247 c -6.51378,-1.10602 -11.47637,-4.765977 -13.80645,-10.182419 -1.23351,-2.867343 -1.37155,-4.048707 -1.12387,-9.617724 0.24004,-5.397307 0.56563,-6.95218 2.17229,-10.374301 2.37307,-5.054463 4.5647,-7.661281 8.2747,-9.84225 2.62198,-1.541362 3.51296,-1.713351 8.87592,-1.713351 5.10401,0 6.41249,0.225618 9.09803,1.568781 5.77851,2.890089 7.53678,8.059307 4.34101,12.762317 -1.39046,2.046225 -3.36542,3.236033 -13.8715,8.356776 l -12.25021,5.970854 1.79187,1.886568 c 2.94491,3.100561 6.2929,4.496492 10.8908,4.540873 5.70311,0.05504 9.63827,-1.226422 12.64899,-4.119133 2.86223,-2.750027 2.89499,-2.759882 4.78175,-1.438339 2.03422,1.424823 1.87761,4.601495 -0.331,6.714179 -2.23336,2.136354 -7.82731,4.680304 -12.05432,5.481945 -3.71543,0.704616 -5.31381,0.705501 -9.43801,0.005 z m 7.84391,-28.430733 c 3.47503,-1.838638 5.33386,-3.173236 5.33386,-3.829598 0,-1.014382 -5.55685,-2.854188 -8.65946,-2.867046 -3.90805,-0.01619 -6.13121,0.995025 -8.75342,3.981566 -1.80491,2.055677 -4.55007,8.166845 -4.55007,10.12918 0,0.845496 6.47269,-2.040366 16.62909,-7.414102 z m 98.83331,28.430733 c -6.51378,-1.10602 -11.4764,-4.765977 -13.80646,-10.182419 -1.23353,-2.867343 -1.37157,-4.048707 -1.12387,-9.617724 0.24002,-5.397307 0.56561,-6.95218 2.17231,-10.374301 2.37303,-5.054463 4.56468,-7.661281 8.27465,-9.84225 2.62201,-1.541362 3.51301,-1.713351 8.87594,-1.713351 5.10404,0 6.41249,0.225618 9.09803,1.568781 5.7785,2.890089 7.53679,8.059307 4.34099,12.762317 -1.39044,2.046225 -3.36541,3.236033 -13.87148,8.356776 l -12.25021,5.970854 1.79185,1.886568 c 2.94495,3.100561 6.2929,4.496492 10.89082,4.540873 5.70311,0.05504 9.63827,-1.226422 12.64901,-4.119133 2.86222,-2.750027 2.89497,-2.759882 4.78175,-1.438339 2.03422,1.424823 1.8776,4.601495 -0.33104,6.714179 -2.23335,2.136354 -7.82727,4.680304 -12.05429,5.481945 -3.71541,0.704616 -5.31383,0.705501 -9.438,0.005 z m 7.84388,-28.430733 c 3.47506,-1.838638 5.33388,-3.173236 5.33388,-3.829598 0,-1.014382 -5.55687,-2.854188 -8.65948,-2.867046 -3.90806,-0.01619 -6.1312,0.995025 -8.75339,3.981566 -1.80494,2.055677 -4.5501,8.166845 -4.5501,10.12918 0,0.845496 6.47269,-2.040366 16.62909,-7.414102 z M 636.435,85.665866 c -6.51377,-1.10602 -11.47638,-4.765977 -13.80645,-10.182419 -1.23353,-2.867343 -1.37157,-4.048707 -1.12388,-9.617724 0.24003,-5.397307 0.56562,-6.95218 2.17231,-10.374301 2.37304,-5.054463 4.56469,-7.661281 8.27466,-9.84225 2.622,-1.541362 3.51296,-1.713351 8.87594,-1.713351 5.10398,0 6.41249,0.225618 9.09807,1.568781 5.77846,2.890089 7.53675,8.059307 4.34096,12.762317 -1.39045,2.046225 -3.36542,3.236033 -13.8715,8.356776 l -12.2502,5.970854 1.79185,1.886568 c 2.94495,3.100561 6.2929,4.496492 10.89082,4.540873 5.70311,0.05504 9.63827,-1.226422 12.64897,-4.119133 2.86226,-2.750027 2.89502,-2.759882 4.78179,-1.438339 2.03418,1.424823 1.87755,4.601495 -0.33104,6.714179 -2.23331,2.136354 -7.82728,4.680304 -12.05433,5.481945 -3.71538,0.704616 -5.3138,0.705501 -9.43797,0.005 z m 7.84388,-28.430733 c 3.47508,-1.838638 5.3339,-3.173236 5.3339,-3.829598 0,-1.014382 -5.55688,-2.854188 -8.65949,-2.867046 -3.90806,-0.01619 -6.1312,0.995025 -8.75339,3.981566 -1.80493,2.055677 -4.55009,8.166845 -4.55009,10.12918 0,0.845496 6.47268,-2.040366 16.62907,-7.414102 z m 73.98361,27.966274 c -0.37976,-0.262483 -1.01205,-1.088315 -1.40512,-1.835185 -1.26149,-2.397033 -13.906,-35.987491 -13.906,-36.94166 0,-1.284208 2.28038,-3.430011 3.64516,-3.430011 0.62426,0 1.61,0.352977 2.19053,0.784389 0.58058,0.431417 3.31247,6.968577 6.071,14.527023 2.75849,7.558447 5.14931,13.876522 5.31295,14.040166 0.42767,0.427633 3.00449,-5.587452 7.3194,-17.085478 2.06614,-5.505839 4.06064,-10.37691 4.43217,-10.824606 0.84911,-1.02309 4.41427,-1.063216 5.41653,-0.06097 1.22313,1.223162 0.87548,3.924145 -1.17315,9.11398 -2.04091,5.170192 -12.2664,29.327058 -13.08892,30.921358 -0.53125,1.029847 -3.71274,1.552539 -4.81455,0.790991 z M 80.634062,37.33432 c -0.766227,-0.308312 -1.572612,-1.275669 -1.791975,-2.149685 -0.333134,-1.327317 0.399141,-2.571145 4.444967,-7.550117 2.664104,-3.27855 5.841703,-6.577734 7.061349,-7.331512 2.019616,-1.248194 2.363302,-1.28897 3.850804,-0.456873 3.457641,1.934177 2.388967,3.873409 -8.481249,15.39022 -2.741005,2.904052 -2.908664,2.973245 -5.083896,2.097967 z"
       id="path837" />
  </g>
</svg>
